<mxfile host="app.diagrams.net" agent="Mozilla/5.0 (X11; Linux x86_64) AppleWebKit/537.36 (KHTML, like Gecko) Chrome/133.0.0.0 Safari/537.36" version="26.0.16">
  <diagram name="Page-1" id="XsKjswDsnSn-sBIZdLU6">
    <mxGraphModel dx="989" dy="520" grid="1" gridSize="10" guides="1" tooltips="1" connect="1" arrows="1" fold="1" page="1" pageScale="1" pageWidth="850" pageHeight="1100" math="0" shadow="0">
      <root>
        <mxCell id="0" />
        <mxCell id="1" parent="0" />
        <mxCell id="7-5hp06oOx9DGlblAHuX-1" value="FRONTEND&lt;div&gt;EC2&lt;/div&gt;&lt;div&gt;(NOT SCALED?)&lt;/div&gt;" style="rounded=1;whiteSpace=wrap;html=1;" vertex="1" parent="1">
          <mxGeometry x="130" y="180" width="120" height="60" as="geometry" />
        </mxCell>
        <mxCell id="7-5hp06oOx9DGlblAHuX-2" value="AWS ECS ap-south-1&lt;div&gt;aus cluster (1, 2, 5)&lt;/div&gt;" style="rounded=1;whiteSpace=wrap;html=1;" vertex="1" parent="1">
          <mxGeometry x="260" y="340" width="150" height="70" as="geometry" />
        </mxCell>
        <mxCell id="7-5hp06oOx9DGlblAHuX-4" value="AWS ECS us-east-1&lt;div&gt;aus cluster (1, 2, 5)&lt;/div&gt;" style="rounded=1;whiteSpace=wrap;html=1;" vertex="1" parent="1">
          <mxGeometry x="450" y="340" width="150" height="70" as="geometry" />
        </mxCell>
        <mxCell id="7-5hp06oOx9DGlblAHuX-5" value="DIGITAL OCEAN?&lt;div&gt;(cant be a sandbox tho?)&lt;/div&gt;" style="rounded=1;whiteSpace=wrap;html=1;" vertex="1" parent="1">
          <mxGeometry x="650" y="340" width="150" height="70" as="geometry" />
        </mxCell>
        <mxCell id="7-5hp06oOx9DGlblAHuX-6" value="HA PROXY&lt;br&gt;where tho?" style="rounded=1;whiteSpace=wrap;html=1;" vertex="1" parent="1">
          <mxGeometry x="475" y="160" width="120" height="60" as="geometry" />
        </mxCell>
        <mxCell id="7-5hp06oOx9DGlblAHuX-7" value="" style="endArrow=classic;html=1;rounded=0;exitX=0.442;exitY=1.017;exitDx=0;exitDy=0;exitPerimeter=0;entryX=0.5;entryY=0;entryDx=0;entryDy=0;" edge="1" parent="1" source="7-5hp06oOx9DGlblAHuX-6" target="7-5hp06oOx9DGlblAHuX-2">
          <mxGeometry width="50" height="50" relative="1" as="geometry">
            <mxPoint x="400" y="410" as="sourcePoint" />
            <mxPoint x="450" y="360" as="targetPoint" />
          </mxGeometry>
        </mxCell>
        <mxCell id="7-5hp06oOx9DGlblAHuX-8" value="" style="endArrow=classic;html=1;rounded=0;entryX=0.5;entryY=0;entryDx=0;entryDy=0;" edge="1" parent="1" target="7-5hp06oOx9DGlblAHuX-4">
          <mxGeometry width="50" height="50" relative="1" as="geometry">
            <mxPoint x="530" y="220" as="sourcePoint" />
            <mxPoint x="345" y="350" as="targetPoint" />
          </mxGeometry>
        </mxCell>
        <mxCell id="7-5hp06oOx9DGlblAHuX-9" value="" style="endArrow=classic;html=1;rounded=0;entryX=0.5;entryY=0;entryDx=0;entryDy=0;" edge="1" parent="1" target="7-5hp06oOx9DGlblAHuX-5">
          <mxGeometry width="50" height="50" relative="1" as="geometry">
            <mxPoint x="530" y="220" as="sourcePoint" />
            <mxPoint x="545" y="350" as="targetPoint" />
          </mxGeometry>
        </mxCell>
        <mxCell id="7-5hp06oOx9DGlblAHuX-10" value="DB&lt;div&gt;EC2&lt;/div&gt;" style="shape=cylinder3;whiteSpace=wrap;html=1;boundedLbl=1;backgroundOutline=1;size=15;" vertex="1" parent="1">
          <mxGeometry x="300" y="540" width="70" height="90" as="geometry" />
        </mxCell>
        <mxCell id="7-5hp06oOx9DGlblAHuX-11" value="" style="endArrow=none;html=1;rounded=0;" edge="1" parent="1">
          <mxGeometry width="50" height="50" relative="1" as="geometry">
            <mxPoint x="440" y="810" as="sourcePoint" />
            <mxPoint x="440" y="470" as="targetPoint" />
          </mxGeometry>
        </mxCell>
        <mxCell id="7-5hp06oOx9DGlblAHuX-12" value="DB&lt;div&gt;EC2&lt;/div&gt;" style="shape=cylinder3;whiteSpace=wrap;html=1;boundedLbl=1;backgroundOutline=1;size=15;" vertex="1" parent="1">
          <mxGeometry x="610" y="480" width="70" height="90" as="geometry" />
        </mxCell>
        <mxCell id="7-5hp06oOx9DGlblAHuX-13" value="sim for single point of failure?" style="text;html=1;align=center;verticalAlign=middle;whiteSpace=wrap;rounded=0;" vertex="1" parent="1">
          <mxGeometry x="290" y="450" width="90" height="60" as="geometry" />
        </mxCell>
        <mxCell id="7-5hp06oOx9DGlblAHuX-14" value="DB&lt;div&gt;EC2&lt;/div&gt;" style="shape=cylinder3;whiteSpace=wrap;html=1;boundedLbl=1;backgroundOutline=1;size=15;" vertex="1" parent="1">
          <mxGeometry x="680" y="620" width="70" height="90" as="geometry" />
        </mxCell>
        <mxCell id="7-5hp06oOx9DGlblAHuX-15" value="DB&lt;div&gt;EC2&lt;/div&gt;" style="shape=cylinder3;whiteSpace=wrap;html=1;boundedLbl=1;backgroundOutline=1;size=15;" vertex="1" parent="1">
          <mxGeometry x="540" y="620" width="70" height="90" as="geometry" />
        </mxCell>
        <mxCell id="7-5hp06oOx9DGlblAHuX-16" value="(read replicas)" style="text;html=1;align=center;verticalAlign=middle;whiteSpace=wrap;rounded=0;" vertex="1" parent="1">
          <mxGeometry x="440" y="635" width="90" height="60" as="geometry" />
        </mxCell>
        <mxCell id="7-5hp06oOx9DGlblAHuX-17" value="(primary)" style="text;html=1;align=center;verticalAlign=middle;whiteSpace=wrap;rounded=0;" vertex="1" parent="1">
          <mxGeometry x="480" y="495" width="90" height="60" as="geometry" />
        </mxCell>
      </root>
    </mxGraphModel>
  </diagram>
</mxfile>
